<!-- Generated by IcoMoon.io -->
<svg version="1.1" xmlns="http://www.w3.org/2000/svg" width="1097" height="1024" viewBox="0 0 1097 1024">
<g id="icomoon-ignore">
</g>
<path fill="#000" d="M1036.189 877.718c15.536 0.018 30.479 5.965 41.776 16.629s18.096 25.242 19.006 40.752c0.911 15.506-4.136 30.779-14.106 42.693-9.973 11.911-24.115 19.569-39.545 21.402l-7.131 0.428h-975.237c-15.536-0.018-30.478-5.965-41.775-16.629s-18.095-25.242-19.005-40.752c-0.91-15.506 4.135-30.779 14.107-42.693 9.971-11.911 24.115-19.569 39.542-21.405l7.131-0.424h975.237zM1036.189 451.050c16.168 0 31.671 6.422 43.099 17.854 11.432 11.429 17.854 26.935 17.854 43.099s-6.422 31.667-17.854 43.099c-11.429 11.432-26.931 17.851-43.099 17.851h-975.237c-16.166 0-31.669-6.418-43.1-17.851s-17.853-26.935-17.853-43.099c0-16.165 6.422-31.671 17.853-43.099 11.431-11.432 26.934-17.854 43.1-17.854h975.237zM1036.189 24.384c16.168 0 31.671 6.422 43.099 17.852 11.432 11.431 17.854 26.934 17.854 43.1s-6.422 31.669-17.854 43.1c-11.429 11.431-26.931 17.852-43.099 17.852h-975.237c-16.166 0-31.669-6.422-43.1-17.852s-17.853-26.934-17.853-43.1c0-16.165 6.422-31.669 17.853-43.1s26.934-17.852 43.1-17.852h975.237z"></path>
</svg>
