<svg width="28" height="29" viewBox="0 0 28 29" fill="none" xmlns="http://www.w3.org/2000/svg">
<path d="M14 0.5C10.1941 0.5 9.71984 0.518377 8.2304 0.581385C6.73484 0.654894 5.72322 0.886798 4.8306 1.23334C3.89639 1.58603 3.05034 2.13822 2.35142 2.85142C1.63623 3.5487 1.08373 4.39523 0.733342 5.3306C0.386798 6.22322 0.154894 7.23484 0.0813852 8.7304C0.0140018 10.2207 0 10.6941 0 14.5C0 18.3059 0.0183773 18.7802 0.0813852 20.2696C0.154894 21.7608 0.386798 22.7768 0.733342 23.6694C1.08603 24.6036 1.63822 25.4497 2.35142 26.1486C3.0487 26.8638 3.89523 27.4163 4.8306 27.7667C5.72322 28.1088 6.73922 28.3451 8.2304 28.4186C9.72072 28.486 10.1941 28.5 14 28.5C17.8059 28.5 18.2802 28.4816 19.7696 28.4186C21.2608 28.3451 22.2768 28.108 23.1694 27.7667C24.1036 27.414 24.9497 26.8618 25.6486 26.1486C26.3647 25.4521 26.9173 24.6053 27.2667 23.6694C27.6088 22.7768 27.8451 21.7608 27.9186 20.2696C27.986 18.7793 28 18.3059 28 14.5C28 10.6941 27.9816 10.2198 27.9186 8.7304C27.8451 7.23922 27.608 6.21796 27.2667 5.3306C26.914 4.39639 26.3618 3.55034 25.6486 2.85142C24.9521 2.13531 24.1053 1.58267 23.1694 1.23334C22.2768 0.886798 21.2608 0.654894 19.7696 0.581385C18.2793 0.514002 17.8059 0.5 14 0.5ZM14 3.02032C17.7376 3.02032 18.1839 3.03869 19.6611 3.1017C21.0236 3.16558 21.7657 3.39311 22.2584 3.58564C22.8675 3.81047 23.4188 4.16833 23.8721 4.63314C24.3361 5.08455 24.6926 5.63457 24.9152 6.24247C25.1078 6.73515 25.3353 7.47725 25.3992 8.83979C25.4622 10.317 25.4806 10.7642 25.4806 14.5009C25.4806 18.2376 25.4622 18.6848 25.3939 20.162C25.3204 21.5245 25.0929 22.2666 24.9012 22.7593C24.6361 23.4165 24.3403 23.8759 23.852 24.373C23.3971 24.8349 22.8462 25.191 22.2383 25.4161C21.7517 25.6086 20.9991 25.8362 19.6313 25.9C18.1463 25.9631 17.7087 25.9814 13.9615 25.9814C10.2143 25.9814 9.7776 25.9631 8.29079 25.8948C6.92824 25.8213 6.17652 25.5938 5.68384 25.4021C5.01875 25.137 4.56282 24.8412 4.07451 24.3529C3.58182 23.8602 3.26853 23.3911 3.027 22.7392C2.83098 22.2526 2.60695 21.5 2.53432 20.1322C2.48444 18.6646 2.46081 18.2096 2.46081 14.4799C2.46081 10.7519 2.48444 10.296 2.53432 8.81004C2.60695 7.44224 2.83098 6.6914 3.027 6.20309C3.26853 5.53713 3.5827 5.08207 4.07451 4.58939C4.56195 4.10195 5.01875 3.78691 5.68384 3.54013C6.17652 3.34848 6.90986 3.12095 8.27766 3.05269C9.76272 2.99931 10.2003 2.98006 13.9422 2.98006L14 3.02032ZM14 7.31448C13.0561 7.31413 12.1213 7.4998 11.2491 7.86087C10.377 8.22194 9.58453 8.75134 8.91706 9.41881C8.24959 10.0863 7.72019 10.8787 7.35912 11.7509C6.99805 12.623 6.81238 13.5578 6.81273 14.5017C6.81238 15.4457 6.99805 16.3805 7.35912 17.2526C7.72019 18.1248 8.24959 18.9172 8.91706 19.5847C9.58453 20.2522 10.377 20.7816 11.2491 21.1426C12.1213 21.5037 13.0561 21.6894 14 21.689C14.9439 21.6894 15.8787 21.5037 16.7509 21.1426C17.623 20.7816 18.4155 20.2522 19.0829 19.5847C19.7504 18.9172 20.2798 18.1248 20.6409 17.2526C21.0019 16.3805 21.1876 15.4457 21.1873 14.5017C21.1876 13.5578 21.0019 12.623 20.6409 11.7509C20.2798 10.8787 19.7504 10.0863 19.0829 9.41881C18.4155 8.75134 17.623 8.22194 16.7509 7.86087C15.8787 7.4998 14.9439 7.31413 14 7.31448ZM14 19.1687C11.4202 19.1687 9.33304 17.0816 9.33304 14.5017C9.33304 11.9219 11.4202 9.83479 14 9.83479C16.5798 9.83479 18.667 11.9219 18.667 14.5017C18.667 17.0816 16.5798 19.1687 14 19.1687ZM23.1571 7.02744C23.1567 7.47345 22.9792 7.90104 22.6636 8.21625C22.3481 8.53147 21.9203 8.70853 21.4743 8.70853C21.2538 8.70853 21.0354 8.66509 20.8317 8.58069C20.6279 8.4963 20.4428 8.3726 20.2868 8.21666C20.1309 8.06072 20.0072 7.87559 19.9228 7.67184C19.8384 7.4681 19.795 7.24972 19.795 7.02919C19.795 6.80866 19.8384 6.59028 19.9228 6.38654C20.0072 6.18279 20.1309 5.99766 20.2868 5.84172C20.4428 5.68578 20.6279 5.56208 20.8317 5.47769C21.0354 5.39329 21.2538 5.34986 21.4743 5.34986C22.3993 5.34986 23.1571 6.10245 23.1571 7.02744Z" fill="black"/>
</svg>
