<svg width="28" height="29" viewBox="0 0 28 29" fill="none" xmlns="http://www.w3.org/2000/svg">
<path d="M21.4375 0.5H6.5625C2.93813 0.5 0 3.43813 0 7.0625V21.9375C0 25.5619 2.93813 28.5 6.5625 28.5H21.4375C25.0619 28.5 28 25.5619 28 21.9375V7.0625C28 3.43813 25.0619 0.5 21.4375 0.5Z" fill="white"/>
<path d="M21.4375 0.5H6.5625C2.93813 0.5 0 3.43813 0 7.0625V21.9375C0 25.5619 2.93813 28.5 6.5625 28.5H21.4375C25.0619 28.5 28 25.5619 28 21.9375V7.0625C28 3.43813 25.0619 0.5 21.4375 0.5Z" fill="black"/>
<path d="M21.8282 10.4981C21.8402 10.6717 21.8402 10.8452 21.8402 11.0204C21.8402 16.3576 17.7772 22.513 10.3476 22.513V22.5097C8.15283 22.5129 6.00349 21.8843 4.15625 20.699C4.47541 20.7374 4.79609 20.7566 5.11766 20.7573C6.93678 20.7588 8.70358 20.1486 10.1341 19.0249C9.29127 19.009 8.47445 18.7301 7.79787 18.2272C7.12129 17.7243 6.61878 17.0225 6.36059 16.22C6.96574 16.3367 7.5896 16.3129 8.18409 16.1505C6.29978 15.7697 4.94408 14.1141 4.94408 12.1913V12.1401C5.50582 12.453 6.13449 12.6264 6.7772 12.6457C5.00248 11.4595 4.45539 9.0984 5.52705 7.25237C6.5411 8.50023 7.8063 9.52081 9.24049 10.2478C10.6747 10.9748 12.2458 11.392 13.8517 11.4723C13.6916 10.783 13.7152 10.0638 13.9203 9.38661C14.1253 8.70938 14.5046 8.09786 15.0201 7.6132C16.647 6.08392 19.2056 6.16234 20.7349 7.78831C21.6394 7.60972 22.5068 7.27812 23.2998 6.80776C22.9983 7.74299 22.3673 8.53684 21.5242 9.04164C22.3249 8.9473 23.1069 8.73297 23.8438 8.40584C23.3017 9.21762 22.6191 9.92606 21.8282 10.4981Z" fill="white"/>
</svg>
